<mxfile host="app.diagrams.net" modified="2024-05-24T03:13:33.923Z" agent="Mozilla/5.0 (Macintosh; Intel Mac OS X 10_15_7) AppleWebKit/537.36 (KHTML, like Gecko) Chrome/124.0.0.0 Safari/537.36" etag="syVaiyf78wtogi_GyAFh" version="24.4.7" type="device">
  <diagram name="페이지-1" id="6XC6FyblOOuQ-mbv5QY3">
    <mxGraphModel dx="1080" dy="616" grid="1" gridSize="10" guides="1" tooltips="1" connect="1" arrows="1" fold="1" page="1" pageScale="1" pageWidth="827" pageHeight="1169" math="0" shadow="0">
      <root>
        <mxCell id="0" />
        <mxCell id="1" parent="0" />
        <mxCell id="cdTFU0mOnDNpmQIiJ1Mk-2" value="" style="rounded=0;whiteSpace=wrap;html=1;fillColor=#f5f5f5;fontColor=#333333;strokeColor=#666666;" parent="1" vertex="1">
          <mxGeometry x="280" y="410" width="140" height="150" as="geometry" />
        </mxCell>
        <mxCell id="99Fx5qbN-KE4hAr0jCfI-25" value="" style="rounded=0;whiteSpace=wrap;html=1;fillColor=#f5f5f5;fontColor=#333333;strokeColor=#666666;" parent="1" vertex="1">
          <mxGeometry x="490" y="92.83" width="140" height="363.28" as="geometry" />
        </mxCell>
        <mxCell id="99Fx5qbN-KE4hAr0jCfI-1" value="" style="rounded=1;whiteSpace=wrap;html=1;fillColor=#dae8fc;strokeColor=#6c8ebf;" parent="1" vertex="1">
          <mxGeometry x="280" y="160" width="140" height="230" as="geometry" />
        </mxCell>
        <mxCell id="99Fx5qbN-KE4hAr0jCfI-2" value="Diamond Storage" style="rounded=0;whiteSpace=wrap;html=1;fillColor=#f8cecc;strokeColor=#b85450;" parent="1" vertex="1">
          <mxGeometry x="300" y="180" width="100" height="50" as="geometry" />
        </mxCell>
        <mxCell id="99Fx5qbN-KE4hAr0jCfI-3" value="App Storage" style="rounded=0;whiteSpace=wrap;html=1;fillColor=#e1d5e7;strokeColor=#9673a6;" parent="1" vertex="1">
          <mxGeometry x="300" y="250" width="100" height="50" as="geometry" />
        </mxCell>
        <mxCell id="99Fx5qbN-KE4hAr0jCfI-4" value="Facet Storage" style="rounded=0;whiteSpace=wrap;html=1;fillColor=#d5e8d4;strokeColor=#82b366;" parent="1" vertex="1">
          <mxGeometry x="300" y="320" width="100" height="50" as="geometry" />
        </mxCell>
        <mxCell id="99Fx5qbN-KE4hAr0jCfI-5" value="Secp256k1 Verification Facet" style="rounded=0;whiteSpace=wrap;html=1;fillColor=#f8cecc;strokeColor=#b85450;" parent="1" vertex="1">
          <mxGeometry x="290" y="420" width="120" height="60" as="geometry" />
        </mxCell>
        <mxCell id="99Fx5qbN-KE4hAr0jCfI-6" value="DiamondCut Facet" style="rounded=0;whiteSpace=wrap;html=1;fillColor=#d5e8d4;strokeColor=#82b366;" parent="1" vertex="1">
          <mxGeometry x="500" y="102.83" width="120" height="60" as="geometry" />
        </mxCell>
        <mxCell id="99Fx5qbN-KE4hAr0jCfI-7" value="DiamondLoupe Facet" style="rounded=0;whiteSpace=wrap;html=1;fillColor=#e1d5e7;strokeColor=#9673a6;" parent="1" vertex="1">
          <mxGeometry x="290" y="40" width="120" height="60" as="geometry" />
        </mxCell>
        <mxCell id="99Fx5qbN-KE4hAr0jCfI-8" value="Account Facet" style="rounded=0;whiteSpace=wrap;html=1;fillColor=#fff2cc;strokeColor=#d6b656;" parent="1" vertex="1">
          <mxGeometry x="40" y="200" width="120" height="60" as="geometry" />
        </mxCell>
        <mxCell id="99Fx5qbN-KE4hAr0jCfI-9" value="Restrictions Facet" style="rounded=0;whiteSpace=wrap;html=1;fillColor=#e1d5e7;strokeColor=#9673a6;" parent="1" vertex="1">
          <mxGeometry x="500" y="245.58000000000004" width="120" height="60" as="geometry" />
        </mxCell>
        <mxCell id="99Fx5qbN-KE4hAr0jCfI-10" value="Guardian Facet" style="rounded=0;whiteSpace=wrap;html=1;fillColor=#ffe6cc;strokeColor=#d79b00;" parent="1" vertex="1">
          <mxGeometry x="40" y="110" width="120" height="60" as="geometry" />
        </mxCell>
        <mxCell id="99Fx5qbN-KE4hAr0jCfI-11" value="AccountRecovery Facet" style="rounded=0;whiteSpace=wrap;html=1;fillColor=#fff2cc;strokeColor=#d6b656;" parent="1" vertex="1">
          <mxGeometry x="500" y="172.82999999999998" width="120" height="60" as="geometry" />
        </mxCell>
        <mxCell id="99Fx5qbN-KE4hAr0jCfI-12" value="SignatureMigration Facet" style="rounded=0;whiteSpace=wrap;html=1;fillColor=#f8cecc;strokeColor=#b85450;" parent="1" vertex="1">
          <mxGeometry x="500" y="318.33000000000004" width="120" height="60" as="geometry" />
        </mxCell>
        <mxCell id="99Fx5qbN-KE4hAr0jCfI-13" value="Lock Facet" style="rounded=0;whiteSpace=wrap;html=1;fillColor=#f5f5f5;fontColor=#333333;strokeColor=#666666;" parent="1" vertex="1">
          <mxGeometry x="40" y="290" width="120" height="60" as="geometry" />
        </mxCell>
        <mxCell id="99Fx5qbN-KE4hAr0jCfI-14" value="Secp256r1 Verification Facet" style="rounded=0;whiteSpace=wrap;html=1;fillColor=#dae8fc;strokeColor=#6c8ebf;" parent="1" vertex="1">
          <mxGeometry x="290" y="490" width="120" height="60" as="geometry" />
        </mxCell>
        <mxCell id="99Fx5qbN-KE4hAr0jCfI-16" value="" style="endArrow=classic;html=1;rounded=0;entryX=0.5;entryY=1;entryDx=0;entryDy=0;exitX=0.5;exitY=0;exitDx=0;exitDy=0;" parent="1" source="99Fx5qbN-KE4hAr0jCfI-2" target="99Fx5qbN-KE4hAr0jCfI-7" edge="1">
          <mxGeometry width="50" height="50" relative="1" as="geometry">
            <mxPoint x="390" y="260" as="sourcePoint" />
            <mxPoint x="440" y="210" as="targetPoint" />
          </mxGeometry>
        </mxCell>
        <mxCell id="99Fx5qbN-KE4hAr0jCfI-20" value="" style="endArrow=classic;html=1;rounded=0;entryX=1;entryY=0.5;entryDx=0;entryDy=0;exitX=0;exitY=0.5;exitDx=0;exitDy=0;" parent="1" source="99Fx5qbN-KE4hAr0jCfI-2" target="99Fx5qbN-KE4hAr0jCfI-8" edge="1">
          <mxGeometry width="50" height="50" relative="1" as="geometry">
            <mxPoint x="390" y="280" as="sourcePoint" />
            <mxPoint x="440" y="230" as="targetPoint" />
            <Array as="points">
              <mxPoint x="220" y="205" />
              <mxPoint x="220" y="230" />
            </Array>
          </mxGeometry>
        </mxCell>
        <mxCell id="99Fx5qbN-KE4hAr0jCfI-21" value="" style="endArrow=classic;html=1;rounded=0;exitX=0;exitY=0.2;exitDx=0;exitDy=0;entryX=1;entryY=0.5;entryDx=0;entryDy=0;exitPerimeter=0;" parent="1" source="99Fx5qbN-KE4hAr0jCfI-3" target="99Fx5qbN-KE4hAr0jCfI-8" edge="1">
          <mxGeometry width="50" height="50" relative="1" as="geometry">
            <mxPoint x="390" y="280" as="sourcePoint" />
            <mxPoint x="160" y="300" as="targetPoint" />
            <Array as="points">
              <mxPoint x="220" y="260" />
              <mxPoint x="220" y="230" />
            </Array>
          </mxGeometry>
        </mxCell>
        <mxCell id="99Fx5qbN-KE4hAr0jCfI-26" value="" style="endArrow=classic;html=1;rounded=0;exitX=1;exitY=0.5;exitDx=0;exitDy=0;entryX=0;entryY=0.5;entryDx=0;entryDy=0;" parent="1" source="99Fx5qbN-KE4hAr0jCfI-2" target="99Fx5qbN-KE4hAr0jCfI-25" edge="1">
          <mxGeometry width="50" height="50" relative="1" as="geometry">
            <mxPoint x="400" y="210" as="sourcePoint" />
            <mxPoint x="450" y="160" as="targetPoint" />
          </mxGeometry>
        </mxCell>
        <mxCell id="99Fx5qbN-KE4hAr0jCfI-27" value="" style="endArrow=classic;html=1;rounded=0;exitX=1;exitY=0.5;exitDx=0;exitDy=0;entryX=0;entryY=0.5;entryDx=0;entryDy=0;" parent="1" source="99Fx5qbN-KE4hAr0jCfI-3" target="99Fx5qbN-KE4hAr0jCfI-25" edge="1">
          <mxGeometry width="50" height="50" relative="1" as="geometry">
            <mxPoint x="390" y="270" as="sourcePoint" />
            <mxPoint x="440" y="220" as="targetPoint" />
          </mxGeometry>
        </mxCell>
        <mxCell id="99Fx5qbN-KE4hAr0jCfI-28" value="" style="endArrow=classic;html=1;rounded=0;exitX=1;exitY=0.5;exitDx=0;exitDy=0;entryX=0;entryY=0.5;entryDx=0;entryDy=0;" parent="1" source="99Fx5qbN-KE4hAr0jCfI-4" target="99Fx5qbN-KE4hAr0jCfI-25" edge="1">
          <mxGeometry width="50" height="50" relative="1" as="geometry">
            <mxPoint x="390" y="270" as="sourcePoint" />
            <mxPoint x="440" y="220" as="targetPoint" />
          </mxGeometry>
        </mxCell>
        <mxCell id="99Fx5qbN-KE4hAr0jCfI-30" value="" style="endArrow=classic;html=1;rounded=0;entryX=1;entryY=0.5;entryDx=0;entryDy=0;exitX=0;exitY=0.5;exitDx=0;exitDy=0;" parent="1" source="99Fx5qbN-KE4hAr0jCfI-3" target="99Fx5qbN-KE4hAr0jCfI-13" edge="1">
          <mxGeometry width="50" height="50" relative="1" as="geometry">
            <mxPoint x="390" y="270" as="sourcePoint" />
            <mxPoint x="440" y="220" as="targetPoint" />
            <Array as="points">
              <mxPoint x="220" y="275" />
              <mxPoint x="220" y="320" />
            </Array>
          </mxGeometry>
        </mxCell>
        <mxCell id="cdTFU0mOnDNpmQIiJ1Mk-1" style="edgeStyle=orthogonalEdgeStyle;rounded=0;orthogonalLoop=1;jettySize=auto;html=1;exitX=0.5;exitY=1;exitDx=0;exitDy=0;" parent="1" source="99Fx5qbN-KE4hAr0jCfI-25" target="99Fx5qbN-KE4hAr0jCfI-25" edge="1">
          <mxGeometry relative="1" as="geometry" />
        </mxCell>
        <mxCell id="cdTFU0mOnDNpmQIiJ1Mk-3" value="" style="endArrow=classic;html=1;rounded=0;entryX=0;entryY=0.5;entryDx=0;entryDy=0;exitX=0;exitY=0.75;exitDx=0;exitDy=0;" parent="1" source="99Fx5qbN-KE4hAr0jCfI-3" edge="1">
          <mxGeometry width="50" height="50" relative="1" as="geometry">
            <mxPoint x="300" y="290" as="sourcePoint" />
            <mxPoint x="280" y="487.5" as="targetPoint" />
            <Array as="points">
              <mxPoint x="260" y="288" />
              <mxPoint x="260" y="488" />
            </Array>
          </mxGeometry>
        </mxCell>
        <mxCell id="cdTFU0mOnDNpmQIiJ1Mk-5" value="" style="endArrow=none;html=1;rounded=0;exitX=0;exitY=0.5;exitDx=0;exitDy=0;endFill=0;" parent="1" source="99Fx5qbN-KE4hAr0jCfI-4" edge="1">
          <mxGeometry width="50" height="50" relative="1" as="geometry">
            <mxPoint x="380" y="480" as="sourcePoint" />
            <mxPoint x="260" y="470" as="targetPoint" />
            <Array as="points">
              <mxPoint x="260" y="345" />
              <mxPoint x="260" y="470" />
            </Array>
          </mxGeometry>
        </mxCell>
        <mxCell id="cdTFU0mOnDNpmQIiJ1Mk-6" value="TokenReceiver Facet" style="rounded=0;whiteSpace=wrap;html=1;fillColor=#e1d5e7;strokeColor=#9673a6;" parent="1" vertex="1">
          <mxGeometry x="40" y="384.5" width="120" height="60" as="geometry" />
        </mxCell>
        <mxCell id="xHV_Q11_1a1_BbXwxz8X-1" value="" style="endArrow=classic;html=1;rounded=0;entryX=1;entryY=0.5;entryDx=0;entryDy=0;exitX=0;exitY=0.25;exitDx=0;exitDy=0;" edge="1" parent="1" source="99Fx5qbN-KE4hAr0jCfI-2" target="99Fx5qbN-KE4hAr0jCfI-10">
          <mxGeometry width="50" height="50" relative="1" as="geometry">
            <mxPoint x="400" y="330" as="sourcePoint" />
            <mxPoint x="450" y="280" as="targetPoint" />
            <Array as="points">
              <mxPoint x="220" y="193" />
              <mxPoint x="220" y="140" />
            </Array>
          </mxGeometry>
        </mxCell>
        <mxCell id="xHV_Q11_1a1_BbXwxz8X-2" value="" style="endArrow=classic;html=1;rounded=0;exitX=0;exitY=0.25;exitDx=0;exitDy=0;entryX=1;entryY=0.25;entryDx=0;entryDy=0;" edge="1" parent="1" source="99Fx5qbN-KE4hAr0jCfI-4" target="99Fx5qbN-KE4hAr0jCfI-10">
          <mxGeometry width="50" height="50" relative="1" as="geometry">
            <mxPoint x="400" y="330" as="sourcePoint" />
            <mxPoint x="160" y="140" as="targetPoint" />
            <Array as="points">
              <mxPoint x="240" y="333" />
              <mxPoint x="240" y="125" />
            </Array>
          </mxGeometry>
        </mxCell>
        <mxCell id="xHV_Q11_1a1_BbXwxz8X-4" value="MultiSig Facet" style="rounded=0;whiteSpace=wrap;html=1;fillColor=#ffe6cc;strokeColor=#d79b00;" vertex="1" parent="1">
          <mxGeometry x="500" y="386.11" width="120" height="60" as="geometry" />
        </mxCell>
      </root>
    </mxGraphModel>
  </diagram>
</mxfile>
